<svg xmlns="http://www.w3.org/2000/svg" xmlns:xlink="http://www.w3.org/1999/xlink" viewBox="0 0 36.883 16.191" height="61.194" width="139.401"><defs><linearGradient id="a"><stop offset="0" stop-color="#ececec"/><stop offset="1" stop-color="#ececec" stop-opacity="0"/></linearGradient><radialGradient gradientUnits="userSpaceOnUse" gradientTransform="matrix(1 0 0 .43898 0 42.938)" r="18.442" fy="76.636" fx="65.214" cy="76.636" cx="65.214" id="b" xlink:href="#a"/></defs><g transform="translate(-46.772 -68.485)"><text transform="scale(1.00347 .99655)" y="80.992" x="50.474" style="line-height:1.25" font-weight="400" font-size="10.547" font-family="sans-serif" letter-spacing="0" word-spacing="0" fill="#999" stroke-width=".264"><tspan dy="0" rotate="0 0.69999981 0 0" style="-inkscape-font-specification:Broadway" y="80.992" x="50.474" font-size="14.062" font-family="Broadway">A18</tspan></text><path d="M51.823 83.377c.644.163 1.24.456 1.87.664.434.117.852.291 1.271.456.462.24.977.319 1.47.46.6.13 1.175.338 1.759.518.605.118 1.175.354 1.778.482.612.106 1.235.125 1.855.135.422.004.845 0 1.268-.003.457 0 .915 0 1.372.002.58-.007 1.16.022 1.737-.027.72-.06 1.438-.105 2.153-.205.382-.036.756-.109 1.131-.184l-2.228 1.673c-.376.07-.753.123-1.133.165-.72.088-1.442.126-2.164.19-.585.029-1.17.016-1.757.019l-1.38.006c-.422.001-.843.002-1.265-.01-.63-.024-1.262-.059-1.88-.186-.601-.15-1.187-.358-1.79-.5-.582-.187-1.165-.371-1.763-.5-.506-.13-1.006-.273-1.485-.485-.42-.155-.833-.325-1.261-.454-.622-.23-1.227-.505-1.877-.653l2.319-1.563z" fill="none"/><path d="M52.012 82.725c.882.445 1.835.7 2.773.994 1.251.45 2.562.667 3.847.99.988.245 1.975.5 2.983.65.55.183 1.121.294 1.673.464.419.104.792.329 1.078.648.462.55.582 1.239.676 1.929.108.878.072 1.76-.051 2.633-.132 1.094-.584 2.1-.993 3.111-.293.807-.667 1.578-1.044 2.348-.22.497-.539.893-.964 1.225-2.623 1.596-2.274 1.607-4.61 1.65-.686-.012-1.376.038-2.06-.024-.804-.072-1.581-.265-2.357-.476-1.334-.45-2.513-1.263-3.492-2.27-.215-.222-.406-.466-.61-.7-1.061-1.212-1.72-2.406-2.204-3.932-.247-1.03-.18-1.604.512-2.411 1.25-.974 2.683-1.834 4.249-2.165.57-.12.962-.148 1.549-.213a70.853 70.853 0 0 1 6.288-.154c1.629.043 3.25.249 4.793.785.87.27 1.554.803 2.16 1.462.517.595.916 1.245 1.155 1.995.113.52.28 1.091.132 1.623-.03.105-.081.203-.121.305-.197.306-.43.616-.75.806-1.48.883-1.999 1.414-3.308 1.713-.823.148-1.63-.097-2.402-.36-1.128-.404-2.2-.944-3.298-1.419a18.564 18.564 0 0 1-2.898-1.662 12.323 12.323 0 0 1-2.13-1.714c-.471-.485-.91-1.01-1.288-1.572a8.284 8.284 0 0 1-.737-1.373l-.072-.216 2.456-1.348.06.198c.184.467.429.908.702 1.328.36.552.787 1.063 1.248 1.533.628.644 1.33 1.196 2.09 1.68.9.625 1.85 1.186 2.855 1.626 1.087.484 2.159 1.01 3.289 1.39.76.228 1.547.424 2.337.212.967-.3 2.165-1.13-1.49 1.003-.103.06.206-.115.301-.186.222-.163.314-.284.496-.487.049-.082.108-.159.147-.246.208-.47.028-1.022-.056-1.498-.215-.716-.596-1.329-1.09-1.89-.58-.62-1.242-1.1-2.061-1.364-1.511-.516-3.094-.721-4.689-.754-2.097-.032-4.2 0-6.29.202-.65.09-.928.11-1.55.267-.2.05-.396.112-.59.18-.175.06-.669.307-.515.204.155-.105 2.956-1.77 1.59-.958-.767.7-.854 1.14-.663 2.16.136.48.179.68.376 1.154.414.995 1.033 1.883 1.725 2.703.198.225.384.46.595.673.963.973 2.13 1.734 3.436 2.151.687.177.83.233 1.538.336.95.138 1.907.105 2.864.08.47-.019.95-.022 1.415-.108.956-.177 2.44-1.34-1.632 1.1.464-.255.795-.626 1.036-1.096.38-.77.787-1.53 1.078-2.34.397-.997.879-1.976 1.018-3.053.132-.846.159-1.7.066-2.554-.077-.631-.166-1.272-.607-1.764a2.147 2.147 0 0 0-1-.524c-.544-.147-1.082-.318-1.63-.453-1-.177-1.981-.439-2.964-.69-1.294-.311-2.6-.566-3.863-.997a29.519 29.519 0 0 1-2.826-.967l2.319-1.573z" fill="none"/><path d="M51.446 80.374c.775.563 1.294 1.356 1.739 2.187a17.033 17.033 0 0 0 1.83 2.715c.521.69 1.13 1.202 1.818 1.71.589.414 1.222.747 1.867 1.062.633.376 1.274.738 1.91 1.11.526.33 1.073.626 1.602.954.4.242.827.444 1.196.733.18.125.09.06.27.196l-2.374 1.502-.27-.198c-.37-.27-.777-.48-1.166-.72-.528-.323-1.07-.623-1.593-.953-.629-.37-1.259-.74-1.897-1.093a13.63 13.63 0 0 1-1.892-1.108c-.686-.52-1.323-1.082-1.838-1.78-.686-.872-1.326-1.782-1.85-2.76-.435-.8-.939-1.56-1.719-2.06l2.367-1.497z" fill="none"/><path d="M53.282 84.85c.528 1.043 1.263 1.963 1.96 2.897.858 1.224 1.948 2.236 3.096 3.18.791.644 1.643 1.194 2.58 1.6.66.267 1.376.291 2.079.31.926.014 1.853.01 2.78.009 1.105-.002 2.21-.002 3.314-.008.733-.002 1.466-.008 2.2-.01.33-.024.672.045.996-.036.138-.035.268-.093.402-.14.844-.458 2.14-1.123-1.74 1-.076.041.14-.104.205-.16.165-.143.22-.217.366-.382l2.57-1.096c-.874 1.176-2.27 1.828-3.618 2.353-.473.129-.952.112-1.438.102-.725-.001-1.45-.007-2.175-.009a414.308 414.308 0 0 0-3.307.003c-.937.006-1.874.02-2.811.001-.729-.036-1.463-.09-2.134-.405a12.403 12.403 0 0 1-2.592-1.68c-1.143-.977-2.231-2.016-3.11-3.244-.723-.944-1.466-1.88-2.063-2.91l2.44-1.375z" fill="none"/><path d="M71.926 88.325c-1.035-.345-2.114-.55-3.188-.738-1.4-.274-2.809-.47-4.23-.585-1.54-.172-3.087-.237-4.635-.276-1.569-.033-3.138-.03-4.707-.028-1.26 0-2.52.006-3.78.012-.82 0-1.642.009-2.463.008-.747-.028-1.475.134-2.192.322-.894.28-1.765.62-2.643.944-.783.368-1.58.69-2.406.949-.6.151-1.222.266-1.842.214-.547-.083-.948-.395-1.34-.763-.48-.5-.818-1.092-1.075-1.731-.142-.477-.332-1.02-.132-1.51.037-.092.096-.175.144-.262.95-1.104 2.343-1.922 3.797-2.048.89-.042 1.78-.02 2.67-.018 1.25-.052 2.486.134 3.705.394 1.12.267 2.217.659 3.217 1.234.714.412 1.407.857 2.063 1.358.67.525 1.28 1.117 1.91 1.688.734.694 1.584 1.232 2.442 1.754.756.467 1.603.708 2.454.932.587.149 1.191.183 1.794.198.607.01 1.214.004 1.82.002.684-.02 1.334-.229 1.995-.38a11.252 11.252 0 0 0 2.06-.678c.85-.502 2.32-1.312-1.635.936-.08.045.158-.095.235-.146.193-.125.242-.166.43-.305.435-.343.878-.68 1.263-1.08.317-.305.388-.714.434-1.133.034-.293-.003-.783.3-.965.847-.508 1.713-.982 2.57-1.474.468-.128.94-.035 1.411.018.564.091 1.104.246 1.646.422.454.171.903.363 1.368.503.264.086.42.263.554.494l-2.436 1.406c-.1-.177-.238-.268-.436-.325-.456-.16-.904-.344-1.359-.509a9.484 9.484 0 0 0-1.613-.373c-.45-.045-.91-.098-1.331.113.744-.438 1.492-.871 2.234-1.315.05-.03-.11.044-.16.075-.239.147-.233.43-.24.682-.036.456-.078.925-.354 1.307-.215.213-.107.099-.322.344-.286.287-.642.497-.934.778-1.18.892-2.48 1.616-3.807 2.271-.677.275-1.38.475-2.09.64-.672.16-1.342.34-2.039.335-.61.002-1.219.005-1.828-.01-.615-.028-1.227-.087-1.82-.26-.862-.25-1.718-.516-2.48-1.008-.871-.535-1.726-1.1-2.487-1.79-.613-.575-1.225-1.152-1.892-1.666a23.426 23.426 0 0 0-2.035-1.332 11.68 11.68 0 0 0-3.145-1.18c-1.218-.238-2.447-.396-3.691-.337-.892-.003-1.788-.017-2.677.068-.235.04-.318.042-.537.127-.072.027-.273.137-.207.098 3.97-2.378 2.484-1.576 1.743-.961-.464.543-.328.882-.142 1.533.233.603.557 1.16 1.023 1.616.359.323.73.576 1.231.598a6.06 6.06 0 0 0 1.769-.281c.814-.271 1.595-.615 2.386-.949.88-.328 1.76-.667 2.665-.923.737-.18 1.483-.31 2.245-.277.814 0 1.628.009 2.442.008 1.251.003 2.502.008 3.754.007 1.567.004 3.134.006 4.7.041 1.553.045 3.106.109 4.65.285 1.429.123 2.847.321 4.253.598 1.096.193 2.19.407 3.258.721l-2.305 1.583z" fill="none"/><path d="M49.521 77.465c-.611-.01-1.223-.007-1.835-.005-.535.039-1.046.199-1.573.291-.213.045-.465.053-.667.143-.061.027-.222.148-.164.115 1.977-1.11 2.981-1.756 2.089-1.186a7.951 7.951 0 0 0-.903.754c-.29.317-.366.714-.41 1.126-.025.443-.046.888-.01 1.33.056.438.303.722.64.983.341.26.698.494 1.047.741.36.255.688.533 1.1.7.445.247.928.413 1.388.63.207.094.424.152.634.238l-2.326 1.56c-.215-.08-.435-.15-.641-.252-.463-.208-.934-.4-1.388-.627-.41-.2-.757-.485-1.133-.742-.355-.248-.71-.497-1.054-.76-.376-.323-.665-.67-.748-1.174-.058-.456-.028-.919-.016-1.377.033-.45.075-.901.336-1.285.24-.315.551-.577.88-.797a6.402 6.402 0 0 1 3.578-1.805c.53-.105 1.054-.251 1.599-.246.616.002 1.232.005 1.849-.005l-2.272 1.65z" fill="none"/><ellipse ry="8.096" rx="18.442" cy="76.58" cx="65.214" fill="url(#b)"/></g></svg>